:SAMPLES-PER-SECOND 30
:FRAME-RANGE 1-663
:FULLY-SPECIFIED
:DEGREES
332
root  23.4056 39.0122 70.227 179.278 14.5632 -179.492
RightUpLeg  -3.72402 -5.41204 2.03609
RightLeg  13.9506 -8.24436 0.12696
RightFoot  -11.8545 -0.0702174 2.26299
RightToes  2.91037e-010 0 -3.6325e-017
Spine  8.93336 0.717659 8.08675
Spine1  1.72627 2.50113 -4.33375
HEad  5.64863 7.51379 -3.03183
LeftShoulder1  1.75918 -1.22686 -31.145
LeftArm  5.9502 -5.51859 -31.3306
LeftForeArm  -5.44709 -58.6627 -19.3586
LeftHand  0.0493636 4.78741 -16.5454
RightShoulder  6.2442 8.72054 44.6601
RightArm  -6.88949 -8.6896 12.0122
RightForeArm  -9.00843 61.6572 22.4695
RightHand  0.377073 -3.26433 22.0707
LeftUpLeg  -21.1809 9.97507 3.98698
LeftLeg  43.8289 0.964363 1.37997
LeftFoot  -3.35659 0.71824 -9.98512
LeftToes  -4.9116e-011 5.71383e-011 -3.31847e-011
333
root  23.7993 39.1405 69.2863 179.112 16.4485 179.851
RightUpLeg  -1.00074 -5.16398 1.6225
RightLeg  11.6177 -6.41685 0.275311
RightFoot  -12.2726 -0.0641824 2.33713
RightToes  2.91037e-010 0 -3.6325e-017
Spine  8.1765 1.00845 6.96633
Spine1  1.96094 2.56146 -4.45759
HEad  5.51681 8.62388 -3.51997
LeftShoulder1  1.73924 -1.17445 -31.1347
LeftArm  5.82575 -5.70588 -31.1097
LeftForeArm  -5.57629 -58.5912 -19.3111
LeftHand  0.0516862 4.79904 -16.5894
RightShoulder  6.22282 8.61669 44.8991
RightArm  -6.83469 -8.8269 11.9014
RightForeArm  -8.34406 62.3402 23.1374
RightHand  0.342191 -3.43001 21.9767
LeftUpLeg  -21.852 10.0732 1.71609
LeftLeg  36.4243 1.23085 1.33063
LeftFoot  -3.72232 0.723327 -10.5069
LeftToes  -4.9116e-011 5.71383e-011 -3.31847e-011
334
root  24.1892 39.2231 68.3473 179.084 18.0906 179.481
RightUpLeg  1.72056 -4.83724 1.39545
RightLeg  9.15598 -4.9921 0.34544
RightFoot  -12.6398 -0.055489 2.66324
RightToes  2.91037e-010 0 -3.6325e-017
Spine  7.59145 1.19143 6.03104
Spine1  1.95334 2.56498 -4.61785
HEad  5.46958 9.56806 -3.80947
LeftShoulder1  1.71772 -1.11699 -31.1305
LeftArm  5.36845 -5.62743 -30.8825
LeftForeArm  -5.57543 -58.5918 -19.3115
LeftHand  0.0553757 4.72451 -16.6383
RightShoulder  6.17399 8.42721 45.2698
RightArm  -6.72957 -8.92119 11.9162
RightForeArm  -7.81088 62.9234 23.7415
RightHand  0.296931 -3.63436 21.6861
LeftUpLeg  -21.9149 10.9563 -0.133288
LeftLeg  27.3624 0.510835 0.618569
LeftFoot  -3.10604 0.831981 -11.2715
LeftToes  -4.9116e-011 5.71383e-011 -3.31847e-011
335
root  24.5678 39.2737 67.3938 179.228 19.4611 179.349
RightUpLeg  4.37403 -4.49132 1.29963
RightLeg  6.60665 -3.96531 0.393699
RightFoot  -12.9054 -0.0466676 2.98942
RightToes  2.91037e-010 0 -3.6325e-017
Spine  6.87726 1.28432 5.27114
Spine1  2.11043 2.55118 -4.81735
HEad  5.36563 10.4018 -3.9782
LeftShoulder1  1.6858 -1.03689 -31.0819
LeftArm  4.93437 -5.47697 -30.6444
LeftForeArm  -5.52347 -58.6956 -19.3925
LeftHand  0.0508611 4.74309 -16.5609
RightShoulder  6.09913 8.20301 45.5901
RightArm  -6.48927 -9.02637 11.9618
RightForeArm  -7.35453 63.3512 24.1976
RightHand  0.272976 -3.75393 21.6623
LeftUpLeg  -21.4973 12.2532 -1.75082
LeftLeg  17.2609 -0.719452 0.0690184
LeftFoot  -2.13296 0.956687 -11.6906
LeftToes  -4.9116e-011 5.71383e-011 -3.31847e-011
336
root  24.9608 39.261 66.407 179.425 20.6442 179.42
RightUpLeg  6.88724 -4.11765 1.39872
RightLeg  4.54727 -3.23957 0.308401
RightFoot  -13.3206 -0.0360133 3.14158
RightToes  2.91037e-010 0 -3.6325e-017
Spine  6.0458 1.36986 4.47531
Spine1  2.51866 2.54772 -4.74414
HEad  5.13912 11.028 -3.96924
LeftShoulder1  1.64588 -0.935474 -31.0292
LeftArm  4.59112 -5.31561 -30.4308
LeftForeArm  -5.38407 -58.8279 -19.4902
LeftHand  0.0546723 4.72121 -16.6615
RightShoulder  6.08526 8.10593 45.8767
RightArm  -6.35317 -9.4137 12.0108
RightForeArm  -6.92951 63.9215 24.8512
RightHand  0.237209 -3.91808 21.3907
LeftUpLeg  -20.151 6.85041 0.0513348
LeftLeg  6.92757 6.40609 -1.7277
LeftFoot  -0.741955 1.03354 -11.069
LeftToes  -4.9116e-011 5.71383e-011 -3.31847e-011
337
root  25.3576 39.1532 65.3612 179.49 21.6318 179.739
RightUpLeg  9.17524 -3.81466 1.63452
RightLeg  3.68449 -2.60501 0.164158
RightFoot  -14.3266 -0.00689636 3.46097
RightToes  2.91037e-010 0 -3.6325e-017
Spine  5.61123 1.40986 3.96415
Spine1  2.74025 2.57128 -4.74269
HEad  4.80609 11.5123 -3.65161
LeftShoulder1  1.61096 -0.874023 -30.7487
LeftArm  4.36569 -5.07617 -30.297
LeftForeArm  -5.21986 -59.0959 -19.7013
LeftHand  0.0405625 4.81478 -16.7014
RightShoulder  6.01372 7.90067 46.163
RightArm  -6.10571 -9.90785 12.0283
RightForeArm  -6.31208 64.5736 25.6274
RightHand  0.214613 -4.02183 21.1838
LeftUpLeg  -19.1545 3.8809 1.12184
LeftLeg  -1.58247 11.8647 -3.5747
LeftFoot  0.713979 1.17794 -11.1707
LeftToes  -4.9116e-011 5.71383e-011 -3.31847e-011
338
root  25.7476 38.934 64.2244 179.323 22.2207 -179.918
RightUpLeg  11.2083 -3.71672 1.78625
RightLeg  4.23774 -2.19192 -0.0553095
RightFoot  -16.0877 0.0396209 3.58544
RightToes  2.91037e-010 0 -3.6325e-017
Spine  5.24918 1.33315 3.55456
Spine1  3.08016 2.49218 -4.7198
HEad  4.34509 11.9362 -3.11127
LeftShoulder1  1.57686 -0.817957 -30.4332
LeftArm  4.28316 -5.00585 -30.1752
LeftForeArm  -5.11153 -59.3086 -19.8736
LeftHand  0.0517952 4.74954 -16.9724
RightShoulder  5.94999 7.70956 46.4614
RightArm  -5.82734 -10.3068 11.9923
RightForeArm  -6.09911 64.99 26.1676
RightHand  0.184312 -4.17864 21.1822
LeftUpLeg  -18.7384 3.91244 0.985992
LeftLeg  -5.7528 15.3267 -4.83735
LeftFoot  1.52334 1.4628 -13.0133
LeftToes  -4.9116e-011 5.71383e-011 -3.31847e-011
339
root  26.126 38.6439 63.0039 179.165 22.2652 -179.575
RightUpLeg  12.9476 -3.73822 1.85817
RightLeg  5.78947 -1.98629 -0.266901
RightFoot  -18.2487 0.132053 4.23578
RightToes  2.91037e-010 0 -3.6325e-017
Spine  4.81686 1.18994 3.23768
Spine1  3.40911 2.3342 -4.70741
HEad  3.95441 12.1958 -2.3729
LeftShoulder1  1.54527 -0.758843 -30.1943
LeftArm  4.42439 -5.35884 -30.2434
LeftForeArm  -5.15714 -59.3014 -19.8715
LeftHand  0.037291 4.84158 -16.9177
RightShoulder  5.79132 7.37513 46.6185
RightArm  -5.4831 -10.8229 11.9895
RightForeArm  -5.98891 65.416 26.7546
RightHand  0.159097 -4.29813 20.9429
LeftUpLeg  -18.981 3.90102 0.449053
LeftLeg  -4.9054 19.0742 -4.92907
LeftFoot  2.30382 1.3825 -11.6419
LeftToes  -4.9116e-011 5.71383e-011 -3.31847e-011
340
root  26.4903 38.3526 61.6828 178.784 22.3778 -179.494
RightUpLeg  14.6347 -4.3245 1.13537
RightLeg  8.03559 -0.921308 -0.0799658
RightFoot  -20.196 0.262878 5.16113
RightToes  2.91037e-010 0 -3.6325e-017
Spine  4.41311 1.21476 2.83761
Spine1  3.76218 2.42797 -4.94188
HEad  3.71685 12.1835 -1.49191
LeftShoulder1  1.51956 -0.722805 -29.8907
LeftArm  4.78834 -5.64682 -30.585
LeftForeArm  -5.43218 -59.264 -19.8639
LeftHand  0.00838868 5.0264 -16.7883
RightShoulder  5.5475 6.91567 46.6279
RightArm  -4.97089 -11.5431 11.8412
RightForeArm  -5.89741 65.8381 27.3631
RightHand  0.143426 -4.37304 20.7777
LeftUpLeg  -19.5585 4.16509 -0.549165
LeftLeg  -0.451629 20.9081 -3.92465
LeftFoot  5.21811 0.702367 -5.04335
LeftToes  -4.9116e-011 5.71383e-011 -3.31847e-011
341
root  26.8803 38.1601 60.3288 177.751 22.9516 179.904
RightUpLeg  16.3599 -4.91526 -0.520693
RightLeg  11.076 1.30167 0.0468058
RightFoot  -21.2598 0.47181 7.09287
RightToes  2.91037e-010 0 -3.6325e-017
Spine  4.4825 1.50508 1.16854
Spine1  3.94889 2.65874 -4.75958
HEad  3.53215 12.3529 -0.503708
LeftShoulder1  1.48111 -0.61593 -29.8887
LeftArm  5.01256 -5.50176 -30.6684
LeftForeArm  -5.21367 -59.5701 -20.1104
LeftHand  -0.0114766 5.15487 -16.6741
RightShoulder  5.46911 6.76406 46.6493
RightArm  -4.34927 -12.4575 11.5122
RightForeArm  -5.62922 66.207 27.8955
RightHand  0.137087 -4.40665 20.7818
LeftUpLeg  -19.5083 4.14786 -1.71919
LeftLeg  3.60921 20.5443 -2.58186
LeftFoot  10.832 -0.81602 3.82452
LeftToes  -4.9116e-011 5.71383e-011 -3.31847e-011
